<?xml version="1.0" standalone="no"?>
<!DOCTYPE svg PUBLIC "-//W3C//DTD SVG 20010904//EN"
 "http://www.w3.org/TR/2001/REC-SVG-20010904/DTD/svg10.dtd">
<svg version="1.0" xmlns="http://www.w3.org/2000/svg"
 width="321.000000pt" height="165.000000pt" viewBox="0 0 321.000000 165.000000"
 preserveAspectRatio="xMidYMid meet">

<g transform="translate(0.000000,165.000000) scale(0.100000,-0.100000)"
fill="#000000" stroke="none">
<path d="M1669 1605 c-235 -64 -376 -266 -325 -463 16 -65 84 -196 71 -137
-48 208 -44 315 15 409 37 57 128 119 219 146 252 78 543 -28 639 -232 22 -48
30 -57 47 -52 56 15 154 15 213 0 239 -61 350 -280 250 -492 -31 -67 -83 -115
-177 -164 -108 -56 -167 -122 -232 -255 -27 -57 -49 -110 -49 -119 0 -8 -12
-24 -27 -33 -23 -15 -51 -18 -185 -18 -86 0 -156 0 -155 -1 6 -6 234 -34 275
-34 41 0 53 5 77 30 16 17 25 30 20 30 -4 0 -1 8 7 17 8 10 32 50 52 88 64
125 158 220 288 294 73 41 131 107 159 180 17 46 20 72 17 146 -3 76 -9 100
-36 157 -39 81 -110 148 -202 192 -61 29 -73 31 -176 31 l-112 0 -22 43 c-53
99 -197 200 -336 236 -74 19 -248 20 -315 1z"/>
<path d="M260 1040 c0 -5 7 -10 15 -10 13 0 15 -36 15 -266 0 -161 -4 -263 -9
-259 -5 3 -12 1 -16 -5 -4 -6 14 -10 50 -10 33 0 54 4 50 10 -3 5 -12 7 -20 3
-13 -4 -15 21 -14 178 0 115 4 173 9 154 4 -16 25 -101 45 -187 l38 -158 48 0
c27 0 49 3 49 8 1 16 68 334 72 338 3 2 5 -70 5 -162 0 -160 0 -166 -21 -174
-14 -6 13 -9 78 -9 55 -1 96 2 92 6 -4 5 -13 8 -19 8 -9 0 -13 70 -14 263 -2
254 -1 262 17 262 11 0 20 5 20 10 0 6 -33 10 -78 10 l-77 0 -39 -197 c-21
-109 -42 -201 -45 -205 -4 -5 -24 69 -45 164 -21 94 -43 187 -48 205 l-9 33
-74 0 c-43 0 -75 -4 -75 -10z m159 -271 c35 -143 62 -262 59 -264 -14 -14 -32
38 -86 257 -34 136 -62 252 -62 258 0 5 6 10 13 10 8 0 35 -93 76 -261z m231
-4 c0 -170 -4 -265 -10 -265 -6 0 -10 95 -10 265 0 170 4 265 10 265 6 0 10
-95 10 -265z"/>
<path d="M1263 1037 c-23 -7 -45 -16 -50 -20 -4 -5 -8 -32 -8 -60 0 -34 -4
-52 -12 -53 -26 -3 -27 -6 -6 -14 21 -8 21 -14 22 -176 1 -92 4 -171 8 -177
13 -21 91 -47 143 -47 37 0 50 3 40 9 -8 6 -17 8 -21 5 -4 -2 -19 0 -33 6
l-26 10 0 185 0 185 43 0 c24 0 37 4 30 8 -7 5 -26 7 -43 6 l-30 -2 0 74 c0
41 -3 74 -7 73 -5 -1 -27 -6 -50 -12z m-3 -269 c-1 -216 -2 -241 -15 -224 -22
30 -22 466 0 466 13 0 15 -33 15 -242z"/>
<path d="M1523 1037 c-23 -7 -45 -15 -49 -19 -4 -4 -7 -31 -8 -60 -1 -33 -5
-53 -13 -53 -6 0 -15 -3 -19 -7 -4 -5 0 -8 8 -8 24 0 29 -37 27 -195 0 -79 2
-149 6 -156 14 -21 90 -49 138 -49 30 0 46 4 42 10 -4 6 -10 8 -15 5 -5 -3
-20 -1 -34 5 l-26 10 0 184 0 185 43 4 42 4 -42 1 -43 2 0 75 c0 41 -3 75 -7
74 -5 -1 -27 -6 -50 -12z m-3 -269 c0 -194 -3 -240 -12 -230 -10 10 -13 74
-15 242 -1 193 1 230 13 230 12 0 14 -39 14 -242z"/>
<path d="M874 899 c-41 -12 -65 -40 -68 -79 -2 -34 3 -39 49 -41 63 -3 64 -3
67 54 l3 52 35 0 35 0 3 -77 3 -78 -48 0 c-68 0 -121 -17 -139 -44 -11 -17
-14 -43 -12 -91 3 -59 6 -70 28 -86 27 -20 36 -21 208 -20 74 1 111 4 107 11
-4 6 -10 8 -15 5 -15 -9 -18 19 -18 184 -2 183 -5 192 -71 211 -43 12 -124 12
-167 -1z m186 -220 c0 -139 -2 -168 -15 -173 -13 -5 -15 20 -15 187 1 171 2
190 15 173 12 -16 15 -55 15 -187z m-198 151 c-2 -23 -9 -39 -15 -37 -14 4
-18 37 -6 59 16 30 25 20 21 -22z m138 -219 c0 -96 -1 -99 -24 -105 -52 -13
-66 9 -66 107 0 77 11 97 55 97 l35 0 0 -99z m-138 -7 c-3 -81 -6 -94 -18 -83
-10 8 -14 33 -14 85 0 59 3 75 18 83 9 6 17 11 17 11 0 0 -1 -43 -3 -96z"/>
<path d="M1693 898 c-2 -5 3 -8 11 -8 14 0 16 -25 16 -195 0 -180 2 -197 19
-214 25 -25 79 -35 142 -28 l49 6 0 -44 c0 -63 -7 -75 -46 -75 -33 0 -57 23
-53 53 4 29 -3 33 -53 30 -28 -2 -54 -6 -57 -9 -11 -10 25 -59 54 -73 40 -20
145 -26 189 -11 77 25 76 22 76 311 0 142 -3 260 -7 262 -5 2 -39 0 -78 -3
-38 -4 -60 -8 -47 -8 l22 -2 0 -204 c0 -221 1 -216 -55 -216 -40 0 -46 28 -45
208 1 92 1 181 1 197 l-1 30 -66 0 c-36 0 -68 -3 -71 -7z m89 -217 c3 -199 2
-209 -14 -194 -16 14 -18 38 -18 210 0 163 2 193 15 193 12 0 15 -34 17 -209z
m198 -50 c0 -206 -3 -261 -14 -270 -11 -9 -13 31 -14 251 -1 144 1 265 4 270
19 31 24 -16 24 -251z m-200 -247 c0 -22 -2 -25 -15 -14 -8 7 -15 19 -15 26 0
8 7 14 15 14 10 0 15 -10 15 -26z"/>
<path d="M2186 895 c-58 -20 -70 -37 -68 -95 0 -27 3 -54 7 -59 3 -5 40 -28
83 -51 96 -52 104 -60 107 -107 4 -50 -10 -83 -34 -83 -43 0 -51 10 -51 66 l0
54 -55 0 c-30 0 -56 -4 -56 -10 -8 -59 1 -80 42 -100 70 -36 203 -27 251 17
23 21 24 100 2 131 -8 12 -39 34 -67 48 -29 15 -67 37 -85 51 -31 23 -33 28
-30 76 l3 52 35 0 35 0 3 -52 c3 -58 -1 -55 82 -56 32 0 35 3 38 29 8 82 -126
131 -242 89z m184 -71 c0 -24 -5 -34 -15 -34 -11 0 -15 12 -15 46 0 40 2 45
15 34 8 -7 15 -28 15 -46z m-195 -51 c3 -14 34 -38 95 -73 96 -55 104 -66 98
-135 -4 -56 -27 -58 -24 -2 1 25 -1 54 -5 65 -4 10 -40 38 -81 60 -40 22 -81
46 -91 54 -22 17 -31 82 -15 111 12 21 13 19 16 -18 1 -22 5 -50 7 -62z m-3
-214 c4 -40 3 -40 -13 -20 -14 17 -17 35 -10 59 1 1 5 2 10 2 5 0 11 -18 13
-41z"/>
<path d="M2615 451 c-103 -20 -147 -67 -196 -209 -10 -30 -19 -57 -19 -59 0
-1 106 -3 235 -3 129 0 235 3 235 6 0 3 -20 30 -45 61 -25 30 -45 59 -45 65 0
5 20 36 45 68 25 32 42 61 38 63 -16 9 -209 15 -248 8z"/>
<path d="M201 433 c8 -10 33 -41 57 -70 l44 -52 -58 -61 -57 -60 159 -1 c607
-2 1199 2 1205 9 4 4 21 55 38 114 17 59 34 114 37 123 5 13 -74 15 -716 15
-687 0 -722 -1 -709 -17z m269 -68 c0 -18 -5 -25 -20 -25 -13 0 -20 7 -20 20
0 11 -4 20 -10 20 -5 0 -10 -13 -10 -30 0 -24 4 -30 23 -31 22 -2 22 -2 -1 -6
-21 -4 -24 -9 -20 -44 3 -36 2 -39 -22 -39 -25 0 -25 1 -25 80 l0 80 53 0 c49
0 52 -2 52 -25z m110 -47 c7 -40 18 -76 24 -80 6 -4 -5 -8 -25 -8 -33 0 -36 2
-31 25 3 21 0 25 -18 25 -18 0 -21 -4 -18 -25 4 -19 1 -25 -13 -25 -15 0 -17
4 -9 23 5 12 14 48 20 80 10 49 14 57 34 57 20 0 24 -8 36 -72z m83 49 c-4
-18 4 -30 31 -51 39 -29 49 -69 20 -80 -20 -8 -58 -8 -78 0 -24 9 -20 44 4 44
13 0 20 -7 20 -20 0 -11 7 -20 15 -20 27 0 16 39 -20 66 -46 35 -49 84 -5 84
13 0 16 -6 13 -23z m65 -4 c5 -34 -34 -31 -41 3 -4 21 -1 25 17 22 13 -2 22
-12 24 -25z m162 2 c0 -33 -36 -35 -43 -2 -3 12 -4 -13 -4 -56 2 -76 2 -77
-23 -77 -25 0 -25 1 -22 75 2 49 0 75 -7 75 -6 0 -11 -9 -11 -20 0 -13 -7 -20
-20 -20 -15 0 -20 7 -20 25 0 24 2 25 75 25 73 0 75 -1 75 -25z m200 0 c0 -18
-5 -25 -20 -25 -13 0 -20 7 -20 20 0 11 -7 20 -15 20 -10 0 -15 -10 -15 -30 0
-24 4 -30 23 -31 22 -2 22 -2 -1 -6 -21 -4 -24 -9 -20 -44 3 -36 2 -39 -22
-39 -25 0 -25 0 -22 80 l4 80 54 0 c51 0 54 -1 54 -25z m128 -49 c3 -75 -3
-86 -50 -86 -53 0 -58 7 -58 79 0 37 3 71 7 75 4 4 28 6 53 4 l45 -3 3 -69z
m140 0 c3 -75 -3 -86 -50 -86 -53 0 -58 7 -58 79 0 37 3 71 7 75 4 4 28 6 53
4 l45 -3 3 -69z m136 68 c12 -5 16 -21 16 -70 0 -73 -10 -84 -82 -84 l-43 0 0
80 0 80 47 0 c25 0 53 -3 62 -6z"/>
<path d="M527 333 c-11 -10 -8 -43 3 -43 6 0 10 11 10 25 0 26 -2 29 -13 18z"/>
<path d="M1061 364 c0 -11 3 -14 6 -6 3 7 2 16 -1 19 -3 4 -6 -2 -5 -13z"/>
<path d="M1150 310 c0 -56 3 -70 15 -70 12 0 15 14 15 70 0 56 -3 70 -15 70
-12 0 -15 -14 -15 -70z"/>
<path d="M1290 310 c0 -56 3 -70 15 -70 12 0 15 14 15 70 0 56 -3 70 -15 70
-12 0 -15 -14 -15 -70z"/>
<path d="M1263 310 c0 -36 2 -50 4 -32 2 17 2 47 0 65 -2 17 -4 3 -4 -33z"/>
<path d="M1440 309 c0 -52 3 -70 13 -67 7 3 13 29 15 71 2 55 0 67 -13 67 -12
0 -15 -14 -15 -71z"/>
</g>
</svg>
